<svg xmlns="http://www.w3.org/2000/svg" xmlns:xlink="http://www.w3.org/1999/xlink" viewBox="0 0 1435.74 49.62"><defs><style>.cls-1{fill:none;}.cls-2{clip-path:url(#clip-path);}.cls-3{fill:#464428;}.cls-4{fill:#474527;}.cls-5{fill:#47462a;}.cls-6{fill:#484629;}.cls-7{fill:#49472a;}.cls-8{fill:#4a482c;}.cls-9{fill:#4a482b;}.cls-10{fill:#4b492e;}.cls-11{fill:#4d4a2d;}.cls-12{fill:#4e4c2f;}.cls-13{fill:#4d4a30;}.cls-14{fill:#4f4d31;}.cls-15{fill:#504e32;}.cls-16{fill:#514f32;}.cls-17{fill:#504f33;}.cls-18{fill:#535033;}.cls-19{fill:#525035;}.cls-20{fill:#545134;}.cls-21{fill:#545236;}.cls-22{fill:#555337;}.cls-23{fill:#565437;}.cls-24{fill:#565438;}.cls-25{fill:#575539;}.cls-26{fill:#56553a;}.cls-27{fill:#585639;}.cls-28{fill:#58563a;}</style><clipPath id="clip-path" transform="translate(0 0.04)"><rect class="cls-1" width="1435.73" height="49.53"/></clipPath></defs><g id="Layer_2" data-name="Layer 2"><g id="Layer_1-2" data-name="Layer 1"><g class="cls-2"><rect class="cls-3" y="0.02" width="1435.74" height="2.75"/><rect class="cls-3" y="2.7" width="1435.74" height="0.21"/><rect class="cls-3" y="2.84" width="1435.74" height="0.21"/><rect class="cls-3" y="2.98" width="1435.74" height="0.21"/><rect class="cls-3" y="3.13" width="1435.74" height="0.21"/><rect class="cls-3" y="3.27" width="1435.74" height="0.21"/><rect class="cls-3" y="3.41" width="1435.74" height="0.21"/><rect class="cls-3" y="3.55" width="1435.74" height="0.21"/><rect class="cls-4" y="3.69" width="1435.74" height="0.21"/><rect class="cls-5" y="3.83" width="1435.74" height="0.21"/><rect class="cls-5" y="3.98" width="1435.74" height="0.21"/><rect class="cls-5" y="4.12" width="1435.74" height="0.21"/><rect class="cls-5" y="4.26" width="1435.74" height="0.21"/><rect class="cls-5" y="4.36" width="1435.74" height="0.21" transform="translate(0 1.06) rotate(-0.08)"/><rect class="cls-5" y="4.5" width="1435.74" height="0.21" transform="translate(0 1.06) rotate(-0.08)"/><rect class="cls-5" y="4.68" width="1435.74" height="0.21"/><rect class="cls-5" y="4.83" width="1435.74" height="0.21"/><rect class="cls-5" y="4.97" width="1435.74" height="0.21"/><rect class="cls-5" y="5.11" width="1435.74" height="0.21"/><rect class="cls-5" y="5.25" width="1435.74" height="0.21"/><rect class="cls-5" y="5.39" width="1435.74" height="0.21"/><rect class="cls-5" y="5.53" width="1435.74" height="0.21"/><rect class="cls-5" y="5.68" width="1435.74" height="0.21"/><rect class="cls-6" y="5.82" width="1435.74" height="0.21"/><rect class="cls-6" y="5.96" width="1435.74" height="0.21"/><rect class="cls-6" y="6.1" width="1435.74" height="0.21"/><rect class="cls-7" y="6.24" width="1435.74" height="0.21"/><rect class="cls-7" y="6.38" width="1435.74" height="0.21"/><rect class="cls-7" y="6.53" width="1435.74" height="0.21"/><rect class="cls-7" y="6.67" width="1435.74" height="0.21"/><rect class="cls-7" y="6.81" width="1435.74" height="0.21"/><rect class="cls-7" y="6.95" width="1435.74" height="0.21"/><rect class="cls-7" y="7.09" width="1435.74" height="0.21"/><rect class="cls-7" y="7.23" width="1435.74" height="0.21"/><rect class="cls-7" y="7.37" width="1435.74" height="0.21"/><rect class="cls-7" y="7.52" width="1435.74" height="0.21"/><rect class="cls-7" y="7.66" width="1435.74" height="0.21"/><rect class="cls-7" y="7.8" width="1435.74" height="0.21"/><rect class="cls-7" y="7.94" width="1435.74" height="0.21"/><rect class="cls-7" y="8.08" width="1435.74" height="0.21"/><rect class="cls-7" y="8.22" width="1435.74" height="0.21"/><rect class="cls-7" y="8.37" width="1435.74" height="0.21"/><rect class="cls-7" y="8.51" width="1435.74" height="0.21"/><rect class="cls-8" y="8.65" width="1435.74" height="0.21"/><rect class="cls-8" y="8.79" width="1435.74" height="0.21"/><rect class="cls-8" y="8.93" width="1435.74" height="0.21"/><rect class="cls-8" y="9.07" width="1435.74" height="0.21"/><rect class="cls-8" y="9.22" width="1435.74" height="0.21"/><rect class="cls-8" y="9.36" width="1435.74" height="0.21"/><rect class="cls-8" y="9.5" width="1435.74" height="0.21"/><rect class="cls-8" y="9.64" width="1435.74" height="0.21"/><rect class="cls-8" y="9.78" width="1435.74" height="0.21"/><rect class="cls-8" y="9.92" width="1435.74" height="0.21"/><rect class="cls-9" y="10.07" width="1435.74" height="0.21"/><rect class="cls-9" y="10.21" width="1435.74" height="0.21"/><rect class="cls-9" y="10.35" width="1435.74" height="0.21"/><rect class="cls-9" y="10.49" width="1435.74" height="0.21"/><rect class="cls-9" y="10.63" width="1435.74" height="0.21"/><rect class="cls-9" y="10.77" width="1435.74" height="0.21"/><rect class="cls-9" y="10.92" width="1435.74" height="0.21"/><rect class="cls-10" y="11.06" width="1435.74" height="0.21"/><rect class="cls-10" y="11.2" width="1435.74" height="0.21"/><rect class="cls-10" y="11.34" width="1435.74" height="0.21"/><rect class="cls-10" y="11.48" width="1435.74" height="0.21"/><rect class="cls-10" y="11.62" width="1435.74" height="0.21"/><rect class="cls-10" y="11.76" width="1435.74" height="0.21"/><rect class="cls-10" y="11.91" width="1435.74" height="0.21"/><rect class="cls-10" y="12.05" width="1435.74" height="0.21"/><rect class="cls-11" y="12.19" width="1435.74" height="0.21"/><rect class="cls-11" y="12.33" width="1435.74" height="0.21"/><rect class="cls-11" y="12.47" width="1435.74" height="0.21"/><rect class="cls-11" y="12.61" width="1435.74" height="0.21"/><rect class="cls-11" y="12.76" width="1435.74" height="0.21"/><rect class="cls-11" y="12.9" width="1435.74" height="0.21"/><rect class="cls-11" y="13.04" width="1435.74" height="0.21"/><rect class="cls-11" y="13.18" width="1435.74" height="0.21"/><rect class="cls-11" y="13.32" width="1435.74" height="0.21"/><rect class="cls-10" y="13.46" width="1435.74" height="0.21"/><rect class="cls-10" y="13.61" width="1435.74" height="0.21"/><rect class="cls-10" y="13.75" width="1435.74" height="0.21"/><rect class="cls-10" y="13.89" width="1435.74" height="0.21"/><rect class="cls-10" y="14.03" width="1435.74" height="0.21"/><rect class="cls-10" y="14.17" width="1435.74" height="0.21"/><rect class="cls-12" y="14.31" width="1435.74" height="0.21"/><rect class="cls-12" y="14.46" width="1435.74" height="0.21"/><rect class="cls-12" y="14.6" width="1435.74" height="0.21"/><rect class="cls-12" y="14.74" width="1435.74" height="0.21"/><rect class="cls-12" y="14.88" width="1435.74" height="0.21"/><rect class="cls-12" y="15.02" width="1435.74" height="0.21"/><rect class="cls-12" y="15.16" width="1435.74" height="0.21"/><rect class="cls-12" y="15.31" width="1435.74" height="0.21"/><rect class="cls-12" y="15.45" width="1435.74" height="0.21"/><rect class="cls-12" y="15.59" width="1435.74" height="0.21"/><rect class="cls-12" y="15.73" width="1435.74" height="0.21"/><rect class="cls-13" y="15.87" width="1435.74" height="0.21"/><rect class="cls-13" y="16.01" width="1435.74" height="0.21"/><rect class="cls-13" y="16.16" width="1435.74" height="0.21"/><rect class="cls-13" y="16.3" width="1435.74" height="0.21"/><rect class="cls-12" y="16.44" width="1435.74" height="0.21"/><rect class="cls-12" y="16.58" width="1435.74" height="0.21"/><rect class="cls-12" y="16.72" width="1435.74" height="0.21"/><rect class="cls-12" y="16.86" width="1435.74" height="0.21"/><rect class="cls-12" y="17" width="1435.74" height="0.21"/><rect class="cls-12" y="17.15" width="1435.74" height="0.21"/><rect class="cls-12" y="17.29" width="1435.74" height="0.21"/><rect class="cls-12" y="17.43" width="1435.74" height="0.21"/><rect class="cls-12" y="17.57" width="1435.74" height="0.21"/><rect class="cls-12" y="17.71" width="1435.74" height="0.21"/><rect class="cls-12" y="17.85" width="1435.74" height="0.21"/><rect class="cls-12" y="18" width="1435.74" height="0.21"/><rect class="cls-12" y="18.14" width="1435.74" height="0.21"/><rect class="cls-14" y="18.28" width="1435.74" height="0.21"/><rect class="cls-14" y="18.42" width="1435.74" height="0.21"/><rect class="cls-14" y="18.56" width="1435.74" height="0.21"/><rect class="cls-14" y="18.7" width="1435.74" height="0.21"/><rect class="cls-14" y="18.85" width="1435.74" height="0.21"/><rect class="cls-14" y="18.99" width="1435.74" height="0.21"/><rect class="cls-14" y="19.13" width="1435.74" height="0.21"/><rect class="cls-14" y="19.27" width="1435.74" height="0.21"/><rect class="cls-14" y="19.41" width="1435.74" height="0.21"/><rect class="cls-14" y="19.55" width="1435.74" height="0.21"/><rect class="cls-14" y="19.7" width="1435.74" height="0.21"/><rect class="cls-14" y="19.84" width="1435.74" height="0.21"/><rect class="cls-14" y="19.98" width="1435.74" height="0.21"/><rect class="cls-14" y="20.12" width="1435.74" height="0.21"/><rect class="cls-14" y="20.26" width="1435.74" height="0.21"/><rect class="cls-14" y="20.4" width="1435.74" height="0.21"/><rect class="cls-14" y="20.55" width="1435.74" height="0.21"/><rect class="cls-15" y="20.69" width="1435.74" height="0.21"/><rect class="cls-15" y="20.83" width="1435.74" height="0.21"/><rect class="cls-15" y="20.97" width="1435.74" height="0.21"/><rect class="cls-15" y="21.11" width="1435.74" height="0.21"/><rect class="cls-15" y="21.25" width="1435.74" height="0.21"/><rect class="cls-15" y="21.39" width="1435.74" height="0.21"/><rect class="cls-15" y="21.54" width="1435.74" height="0.21"/><rect class="cls-15" y="21.68" width="1435.74" height="0.21"/><rect class="cls-15" y="21.82" width="1435.74" height="0.21"/><rect class="cls-15" y="21.96" width="1435.74" height="0.21"/><rect class="cls-15" y="22.1" width="1435.74" height="0.21"/><rect class="cls-15" y="22.24" width="1435.74" height="0.21"/><rect class="cls-15" y="22.39" width="1435.74" height="0.21"/><rect class="cls-15" y="22.48" width="1435.74" height="0.21" transform="translate(-0.03 1.06) rotate(-0.08)"/><rect class="cls-15" y="22.62" width="1435.74" height="0.21" transform="translate(-0.03 1.06) rotate(-0.08)"/><rect class="cls-16" y="22.81" width="1435.74" height="0.21"/><rect class="cls-16" y="22.95" width="1435.74" height="0.21"/><rect class="cls-17" y="23.09" width="1435.74" height="0.21"/><rect class="cls-17" y="23.24" width="1435.74" height="0.21"/><rect class="cls-17" y="23.38" width="1435.74" height="0.21"/><rect class="cls-17" y="23.52" width="1435.74" height="0.21"/><rect class="cls-17" y="23.66" width="1435.74" height="0.21"/><rect class="cls-17" y="23.8" width="1435.74" height="0.21"/><rect class="cls-17" y="23.94" width="1435.74" height="0.21"/><rect class="cls-17" y="24.09" width="1435.74" height="0.21"/><rect class="cls-17" y="24.23" width="1435.74" height="0.21"/><rect class="cls-17" y="24.37" width="1435.74" height="0.21"/><rect class="cls-17" y="24.51" width="1435.74" height="0.21"/><rect class="cls-17" y="24.65" width="1435.74" height="0.21"/><rect class="cls-17" y="24.79" width="1435.74" height="0.21"/><rect class="cls-18" y="24.94" width="1435.74" height="0.21"/><rect class="cls-18" y="25.08" width="1435.74" height="0.21"/><rect class="cls-18" y="25.22" width="1435.74" height="0.21"/><rect class="cls-18" y="25.36" width="1435.74" height="0.21"/><rect class="cls-19" y="25.5" width="1435.74" height="0.21"/><rect class="cls-19" y="25.64" width="1435.74" height="0.21"/><rect class="cls-19" y="25.78" width="1435.74" height="0.21"/><rect class="cls-19" y="25.93" width="1435.74" height="0.21"/><rect class="cls-19" y="26.07" width="1435.74" height="0.21"/><rect class="cls-19" y="26.21" width="1435.74" height="0.21"/><rect class="cls-19" y="26.35" width="1435.74" height="0.21"/><rect class="cls-19" y="26.49" width="1435.74" height="0.21"/><rect class="cls-19" y="26.63" width="1435.74" height="0.21"/><rect class="cls-19" y="26.78" width="1435.74" height="0.21"/><rect class="cls-19" y="26.92" width="1435.74" height="0.21"/><rect class="cls-20" y="27.06" width="1435.74" height="0.21"/><rect class="cls-20" y="27.2" width="1435.74" height="0.21"/><rect class="cls-20" y="27.34" width="1435.74" height="0.21"/><rect class="cls-20" y="27.48" width="1435.74" height="0.21"/><rect class="cls-20" y="27.63" width="1435.74" height="0.21"/><rect class="cls-20" y="27.77" width="1435.74" height="0.21"/><rect class="cls-21" y="27.91" width="1435.74" height="0.21"/><rect class="cls-21" y="28.05" width="1435.74" height="0.21"/><rect class="cls-21" y="28.19" width="1435.74" height="0.21"/><rect class="cls-21" y="28.33" width="1435.74" height="0.21"/><rect class="cls-21" y="28.48" width="1435.74" height="0.21"/><rect class="cls-21" y="28.62" width="1435.74" height="0.21"/><rect class="cls-21" y="28.76" width="1435.74" height="0.21"/><rect class="cls-21" y="28.9" width="1435.74" height="0.21"/><rect class="cls-21" y="29.04" width="1435.74" height="0.21"/><rect class="cls-21" y="29.18" width="1435.74" height="0.21"/><rect class="cls-21" y="29.33" width="1435.74" height="0.21"/><rect class="cls-21" y="29.47" width="1435.74" height="0.21"/><rect class="cls-21" y="29.61" width="1435.74" height="0.21"/><rect class="cls-21" y="29.75" width="1435.74" height="0.21"/><rect class="cls-21" y="29.89" width="1435.74" height="0.21"/><rect class="cls-21" y="30.03" width="1435.74" height="0.21"/><rect class="cls-21" y="30.17" width="1435.74" height="0.21"/><rect class="cls-22" y="30.32" width="1435.74" height="0.21"/><rect class="cls-22" y="30.46" width="1435.74" height="0.21"/><rect class="cls-22" y="30.6" width="1435.74" height="0.21"/><rect class="cls-22" y="30.74" width="1435.74" height="0.21"/><rect class="cls-22" y="30.88" width="1435.74" height="0.21"/><rect class="cls-22" y="31.02" width="1435.74" height="0.21"/><rect class="cls-22" y="31.17" width="1435.74" height="0.21"/><rect class="cls-23" y="31.31" width="1435.74" height="0.21"/><rect class="cls-23" y="31.45" width="1435.74" height="0.21"/><rect class="cls-23" y="31.55" width="1435.74" height="0.21" transform="translate(-0.04 1.06) rotate(-0.08)"/><rect class="cls-23" y="31.69" width="1435.74" height="0.21" transform="translate(-0.04 1.06) rotate(-0.08)"/><rect class="cls-23" y="31.87" width="1435.74" height="0.21"/><rect class="cls-23" y="32.02" width="1435.74" height="0.21"/><rect class="cls-23" y="32.16" width="1435.74" height="0.21"/><rect class="cls-23" y="32.3" width="1435.74" height="0.21"/><rect class="cls-23" y="32.44" width="1435.74" height="0.21"/><rect class="cls-23" y="32.58" width="1435.74" height="0.21"/><rect class="cls-24" y="32.72" width="1435.74" height="0.21"/><rect class="cls-24" y="32.87" width="1435.74" height="0.21"/><rect class="cls-24" y="33.01" width="1435.74" height="0.21"/><rect class="cls-24" y="33.15" width="1435.74" height="0.21"/><rect class="cls-24" y="33.29" width="1435.74" height="0.21"/><rect class="cls-25" y="33.43" width="1435.74" height="0.21"/><rect class="cls-25" y="33.57" width="1435.74" height="0.21"/><rect class="cls-25" y="33.72" width="1435.74" height="0.21"/><rect class="cls-25" y="33.86" width="1435.74" height="0.21"/><rect class="cls-25" y="34" width="1435.74" height="0.21"/><rect class="cls-25" y="34.14" width="1435.74" height="0.21"/><rect class="cls-25" y="34.28" width="1435.74" height="0.21"/><rect class="cls-25" y="34.42" width="1435.74" height="0.21"/><rect class="cls-25" y="34.56" width="1435.74" height="0.21"/><rect class="cls-25" y="34.71" width="1435.74" height="0.21"/><rect class="cls-25" y="34.85" width="1435.74" height="0.21"/><rect class="cls-25" y="34.99" width="1435.74" height="0.21"/><rect class="cls-26" y="35.13" width="1435.74" height="0.21"/><rect class="cls-26" y="35.27" width="1435.74" height="0.21"/><rect class="cls-26" y="35.41" width="1435.74" height="0.21"/><rect class="cls-27" y="35.56" width="1435.74" height="0.21"/><rect class="cls-27" y="35.7" width="1435.74" height="0.21"/><rect class="cls-27" y="35.84" width="1435.74" height="0.21"/><rect class="cls-27" y="35.98" width="1435.74" height="0.21"/><rect class="cls-27" y="36.12" width="1435.74" height="0.21"/><rect class="cls-27" y="36.26" width="1435.74" height="0.21"/><rect class="cls-27" y="36.41" width="1435.74" height="0.21"/><rect class="cls-27" y="36.55" width="1435.74" height="0.21"/><rect class="cls-27" y="36.69" width="1435.74" height="0.21"/><rect class="cls-27" y="36.83" width="1435.74" height="0.21"/><rect class="cls-27" y="36.97" width="1435.74" height="0.21"/><rect class="cls-27" y="37.11" width="1435.74" height="0.21"/><rect class="cls-27" y="37.26" width="1435.74" height="0.21"/><rect class="cls-27" y="37.4" width="1435.74" height="0.21"/><rect class="cls-28" y="37.54" width="1435.74" height="0.21"/><rect class="cls-28" y="37.68" width="1435.74" height="0.21"/><rect class="cls-28" y="37.82" width="1435.74" height="0.21"/><rect class="cls-28" y="37.96" width="1435.74" height="0.21"/><rect class="cls-28" y="38.11" width="1435.74" height="0.21"/><rect class="cls-28" y="38.25" width="1435.74" height="0.21"/><rect class="cls-28" y="38.39" width="1435.74" height="0.21"/><rect class="cls-28" y="38.53" width="1435.74" height="0.21"/><rect class="cls-28" y="38.67" width="1435.74" height="10.93"/></g></g></g></svg>