<svg xmlns="http://www.w3.org/2000/svg" xmlns:xlink="http://www.w3.org/1999/xlink" viewBox="0 0 207.98 70.54"><defs><style>.cls-1{fill:none;clip-rule:evenodd;}.cls-2{clip-path:url(#clip-path);}.cls-3{fill:#464428;}.cls-4{fill:#474527;}.cls-5{fill:#47462a;}.cls-6{fill:#484629;}.cls-7{fill:#49472a;}.cls-8{fill:#4a482c;}.cls-9{fill:#4a482b;}.cls-10{fill:#4b492e;}.cls-11{fill:#4d4a2d;}.cls-12{fill:#4e4c2f;}.cls-13{fill:#4d4a30;}.cls-14{fill:#4f4d31;}.cls-15{fill:#504e32;}.cls-16{fill:#514f32;}.cls-17{fill:#504f33;}.cls-18{fill:#535033;}.cls-19{fill:#525035;}.cls-20{fill:#545134;}.cls-21{fill:#545236;}.cls-22{fill:#555337;}.cls-23{fill:#565437;}.cls-24{fill:#565438;}.cls-25{fill:#575539;}.cls-26{fill:#56553a;}.cls-27{fill:#585639;}.cls-28{fill:#58563a;}</style><clipPath id="clip-path" transform="translate(0 0)"><path class="cls-1" d="M0,0H208C134.71,0,143.64,70.53,93.47,70.53H0Z"/></clipPath></defs><g id="Layer_2" data-name="Layer 2"><g id="Layer_1-2" data-name="Layer 1"><g class="cls-2"><rect class="cls-3" y="68.49" width="207.98" height="2.05"/><rect class="cls-3" y="68.3" width="207.98" height="0.3"/><rect class="cls-3" y="68.1" width="207.98" height="0.3"/><rect class="cls-3" y="67.9" width="207.98" height="0.3"/><rect class="cls-3" y="67.7" width="207.98" height="0.3"/><rect class="cls-3" y="67.51" width="207.98" height="0.3"/><rect class="cls-3" y="67.31" width="207.98" height="0.3"/><rect class="cls-3" y="67.11" width="207.98" height="0.3"/><rect class="cls-4" y="66.92" width="207.98" height="0.3"/><rect class="cls-5" y="66.72" width="207.98" height="0.3"/><rect class="cls-5" y="66.52" width="207.98" height="0.3"/><rect class="cls-5" y="66.32" width="207.98" height="0.3"/><rect class="cls-5" y="66.13" width="207.98" height="0.3"/><rect class="cls-5" y="65.93" width="207.98" height="0.3"/><rect class="cls-5" y="65.73" width="207.98" height="0.3"/><rect class="cls-5" y="65.53" width="207.98" height="0.3"/><rect class="cls-5" y="65.34" width="207.98" height="0.3"/><rect class="cls-5" y="65.14" width="207.98" height="0.3"/><rect class="cls-5" y="64.94" width="207.98" height="0.3"/><rect class="cls-5" y="64.75" width="207.98" height="0.3"/><rect class="cls-5" y="64.55" width="207.98" height="0.3"/><rect class="cls-5" y="64.35" width="207.98" height="0.3"/><rect class="cls-5" y="64.15" width="207.98" height="0.3"/><rect class="cls-6" y="63.96" width="207.98" height="0.3"/><rect class="cls-6" y="63.76" width="207.98" height="0.3"/><rect class="cls-6" y="63.56" width="207.98" height="0.3"/><rect class="cls-7" y="63.37" width="207.98" height="0.3"/><rect class="cls-7" y="63.17" width="207.98" height="0.3"/><rect class="cls-7" y="62.97" width="207.98" height="0.3"/><rect class="cls-7" y="62.77" width="207.98" height="0.3"/><rect class="cls-7" y="62.58" width="207.98" height="0.3"/><rect class="cls-7" y="62.38" width="207.98" height="0.3"/><rect class="cls-7" y="62.18" width="207.98" height="0.3"/><rect class="cls-7" y="61.98" width="207.98" height="0.3"/><rect class="cls-7" y="61.79" width="207.98" height="0.3"/><rect class="cls-7" y="61.59" width="207.98" height="0.3"/><rect class="cls-7" y="61.39" width="207.98" height="0.3"/><rect class="cls-7" y="61.2" width="207.98" height="0.3"/><rect class="cls-7" y="61" width="207.98" height="0.3"/><rect class="cls-7" y="60.8" width="207.98" height="0.3"/><rect class="cls-7" y="60.6" width="207.98" height="0.3"/><rect class="cls-7" y="60.41" width="207.98" height="0.3"/><rect class="cls-7" y="60.21" width="207.98" height="0.3"/><rect class="cls-8" y="60.01" width="207.98" height="0.3"/><rect class="cls-8" y="59.81" width="207.98" height="0.3"/><rect class="cls-8" y="59.62" width="207.98" height="0.3"/><rect class="cls-8" y="59.42" width="207.98" height="0.3"/><rect class="cls-8" y="59.22" width="207.98" height="0.3"/><rect class="cls-8" y="59.03" width="207.98" height="0.3"/><rect class="cls-8" y="58.83" width="207.98" height="0.3"/><rect class="cls-8" y="58.63" width="207.98" height="0.3"/><rect class="cls-8" y="58.43" width="207.98" height="0.3"/><rect class="cls-8" y="58.24" width="207.98" height="0.3"/><rect class="cls-9" y="58.04" width="207.98" height="0.3"/><rect class="cls-9" y="57.84" width="207.98" height="0.3"/><rect class="cls-9" y="57.64" width="207.98" height="0.3"/><rect class="cls-9" y="57.45" width="207.98" height="0.3"/><rect class="cls-9" y="57.25" width="207.98" height="0.3"/><rect class="cls-9" y="57.05" width="207.98" height="0.3"/><rect class="cls-9" y="56.86" width="207.98" height="0.3"/><rect class="cls-10" x="103.84" y="-47.19" width="0.3" height="207.98" transform="matrix(0, -1, 1, 0, 47.08, 160.74)"/><rect class="cls-10" y="56.46" width="207.98" height="0.3"/><rect class="cls-10" y="56.26" width="207.98" height="0.3"/><rect class="cls-10" y="56.07" width="207.98" height="0.3"/><rect class="cls-10" y="55.87" width="207.98" height="0.3"/><rect class="cls-10" y="55.67" width="207.98" height="0.3"/><rect class="cls-10" y="55.47" width="207.98" height="0.3"/><rect class="cls-10" y="55.28" width="207.98" height="0.3"/><rect class="cls-11" y="55.08" width="207.98" height="0.3"/><rect class="cls-11" y="54.88" width="207.98" height="0.3"/><rect class="cls-11" y="54.69" width="207.98" height="0.3"/><rect class="cls-11" y="54.49" width="207.98" height="0.3"/><rect class="cls-11" y="54.29" width="207.98" height="0.3"/><rect class="cls-11" y="54.09" width="207.98" height="0.3"/><rect class="cls-11" y="53.9" width="207.98" height="0.3"/><rect class="cls-11" y="53.7" width="207.98" height="0.3"/><rect class="cls-11" y="53.5" width="207.98" height="0.3"/><rect class="cls-10" y="53.3" width="207.98" height="0.3"/><rect class="cls-10" y="53.11" width="207.98" height="0.3"/><rect class="cls-10" y="52.91" width="207.98" height="0.3"/><rect class="cls-10" y="52.71" width="207.98" height="0.3"/><rect class="cls-10" y="52.52" width="207.98" height="0.3"/><rect class="cls-10" y="52.32" width="207.98" height="0.3"/><rect class="cls-12" y="52.12" width="207.98" height="0.3"/><rect class="cls-12" y="51.92" width="207.98" height="0.3"/><rect class="cls-12" y="51.73" width="207.98" height="0.3"/><rect class="cls-12" y="51.53" width="207.98" height="0.3"/><rect class="cls-12" y="51.33" width="207.98" height="0.3"/><rect class="cls-12" y="51.13" width="207.98" height="0.3"/><rect class="cls-12" y="50.94" width="207.98" height="0.3"/><rect class="cls-12" y="50.74" width="207.98" height="0.3"/><rect class="cls-12" y="50.54" width="207.98" height="0.3"/><rect class="cls-12" y="50.35" width="207.98" height="0.3"/><rect class="cls-12" y="50.15" width="207.98" height="0.3"/><rect class="cls-13" y="49.95" width="207.98" height="0.3"/><rect class="cls-13" y="49.75" width="207.98" height="0.3"/><rect class="cls-13" y="49.56" width="207.98" height="0.3"/><rect class="cls-13" y="49.36" width="207.98" height="0.3"/><rect class="cls-12" y="49.16" width="207.98" height="0.3"/><rect class="cls-12" y="48.96" width="207.98" height="0.3"/><rect class="cls-12" y="48.77" width="207.98" height="0.3"/><rect class="cls-12" y="48.57" width="207.98" height="0.3"/><rect class="cls-12" y="48.37" width="207.98" height="0.3"/><rect class="cls-12" y="48.18" width="207.98" height="0.3"/><rect class="cls-12" y="47.98" width="207.98" height="0.3"/><rect class="cls-12" y="47.78" width="207.98" height="0.3"/><rect class="cls-12" y="47.58" width="207.98" height="0.3"/><rect class="cls-12" y="47.39" width="207.98" height="0.3"/><rect class="cls-12" y="47.19" width="207.98" height="0.3"/><rect class="cls-12" y="46.99" width="207.98" height="0.3"/><rect class="cls-12" y="46.79" width="207.98" height="0.3"/><rect class="cls-14" y="46.6" width="207.98" height="0.3"/><rect class="cls-14" y="46.4" width="207.98" height="0.3"/><rect class="cls-14" y="46.2" width="207.98" height="0.3"/><rect class="cls-14" y="46.01" width="207.98" height="0.3"/><rect class="cls-14" y="45.81" width="207.98" height="0.3"/><rect class="cls-14" y="45.61" width="207.98" height="0.3"/><rect class="cls-14" y="45.41" width="207.98" height="0.3"/><rect class="cls-14" y="45.22" width="207.98" height="0.3"/><rect class="cls-14" y="45.02" width="207.98" height="0.3"/><rect class="cls-14" y="44.82" width="207.98" height="0.3"/><rect class="cls-14" y="44.62" width="207.98" height="0.3"/><rect class="cls-14" y="44.43" width="207.98" height="0.3"/><rect class="cls-14" y="44.23" width="207.98" height="0.3"/><rect class="cls-14" y="44.03" width="207.98" height="0.3"/><rect class="cls-14" y="43.84" width="207.98" height="0.3"/><rect class="cls-14" y="43.64" width="207.98" height="0.3"/><rect class="cls-14" y="43.44" width="207.98" height="0.3"/><rect class="cls-15" y="43.24" width="207.98" height="0.3"/><rect class="cls-15" y="43.05" width="207.98" height="0.3"/><rect class="cls-15" y="42.85" width="207.98" height="0.3"/><rect class="cls-15" y="42.65" width="207.98" height="0.3"/><rect class="cls-15" y="42.45" width="207.98" height="0.3"/><rect class="cls-15" y="42.26" width="207.98" height="0.3"/><rect class="cls-15" y="42.06" width="207.98" height="0.3"/><rect class="cls-15" y="41.86" width="207.98" height="0.3"/><rect class="cls-15" y="41.67" width="207.98" height="0.3"/><rect class="cls-15" y="41.47" width="207.98" height="0.3"/><rect class="cls-15" y="41.27" width="207.98" height="0.3"/><rect class="cls-15" y="41.07" width="207.98" height="0.3"/><rect class="cls-15" y="40.88" width="207.98" height="0.3"/><rect class="cls-15" y="40.68" width="207.98" height="0.3"/><rect class="cls-15" y="40.48" width="207.98" height="0.3"/><rect class="cls-16" y="40.28" width="207.98" height="0.3"/><rect class="cls-16" y="40.09" width="207.98" height="0.3"/><rect class="cls-17" y="39.89" width="207.98" height="0.3"/><rect class="cls-17" y="39.69" width="207.98" height="0.3"/><rect class="cls-17" y="39.5" width="207.98" height="0.3"/><rect class="cls-17" y="39.3" width="207.98" height="0.3"/><rect class="cls-17" y="39.1" width="207.98" height="0.3"/><rect class="cls-17" y="38.9" width="207.98" height="0.3"/><rect class="cls-17" y="38.71" width="207.98" height="0.3"/><rect class="cls-17" y="38.51" width="207.98" height="0.3"/><rect class="cls-17" y="38.31" width="207.98" height="0.3"/><rect class="cls-17" y="38.12" width="207.98" height="0.3"/><rect class="cls-17" y="37.92" width="207.98" height="0.3"/><rect class="cls-17" y="37.72" width="207.98" height="0.3"/><rect class="cls-17" y="37.52" width="207.98" height="0.3"/><rect class="cls-18" y="37.33" width="207.98" height="0.3"/><rect class="cls-18" y="37.13" width="207.98" height="0.3"/><rect class="cls-18" y="36.93" width="207.98" height="0.3"/><rect class="cls-18" y="36.73" width="207.98" height="0.3"/><rect class="cls-19" y="36.54" width="207.98" height="0.3"/><rect class="cls-19" y="36.34" width="207.98" height="0.3"/><rect class="cls-19" y="36.14" width="207.98" height="0.3"/><rect class="cls-19" y="35.95" width="207.98" height="0.3"/><rect class="cls-19" y="35.75" width="207.98" height="0.3"/><rect class="cls-19" y="35.55" width="207.98" height="0.3"/><rect class="cls-19" y="35.35" width="207.98" height="0.3"/><rect class="cls-19" y="35.16" width="207.98" height="0.3"/><rect class="cls-19" y="34.96" width="207.98" height="0.3"/><rect class="cls-19" y="34.76" width="207.98" height="0.3"/><rect class="cls-19" y="34.56" width="207.98" height="0.3"/><rect class="cls-20" y="34.37" width="207.98" height="0.3"/><rect class="cls-20" y="34.17" width="207.98" height="0.3"/><rect class="cls-20" y="33.97" width="207.98" height="0.3"/><rect class="cls-20" y="33.78" width="207.98" height="0.3"/><rect class="cls-20" y="33.58" width="207.98" height="0.3"/><rect class="cls-20" y="33.38" width="207.98" height="0.3"/><rect class="cls-21" y="33.18" width="207.98" height="0.3"/><rect class="cls-21" y="32.99" width="207.98" height="0.3"/><rect class="cls-21" y="32.79" width="207.98" height="0.3"/><rect class="cls-21" y="32.59" width="207.98" height="0.3"/><rect class="cls-21" y="32.39" width="207.98" height="0.3"/><rect class="cls-21" y="32.2" width="207.98" height="0.3"/><rect class="cls-21" y="32" width="207.98" height="0.3"/><rect class="cls-21" y="31.8" width="207.98" height="0.3"/><rect class="cls-21" y="31.61" width="207.98" height="0.3"/><rect class="cls-21" x="103.84" y="-72.44" width="0.3" height="207.98" transform="matrix(0, -1, 1, 0, 72.33, 135.51)"/><rect class="cls-21" y="31.21" width="207.98" height="0.3"/><rect class="cls-21" y="31.01" width="207.98" height="0.3"/><rect class="cls-21" y="30.82" width="207.98" height="0.3"/><rect class="cls-21" y="30.62" width="207.98" height="0.3"/><rect class="cls-21" y="30.42" width="207.98" height="0.3"/><rect class="cls-21" y="30.22" width="207.98" height="0.3"/><rect class="cls-21" y="30.03" width="207.98" height="0.3"/><rect class="cls-22" y="29.83" width="207.98" height="0.3"/><rect class="cls-22" y="29.63" width="207.98" height="0.3"/><rect class="cls-22" y="29.44" width="207.98" height="0.3"/><rect class="cls-22" y="29.24" width="207.98" height="0.3"/><rect class="cls-22" y="29.04" width="207.98" height="0.3"/><rect class="cls-22" y="28.84" width="207.98" height="0.3"/><rect class="cls-22" y="28.65" width="207.98" height="0.3"/><rect class="cls-23" y="28.45" width="207.98" height="0.3"/><rect class="cls-23" y="28.25" width="207.98" height="0.3"/><rect class="cls-23" y="28.05" width="207.98" height="0.3"/><rect class="cls-23" y="27.86" width="207.98" height="0.3"/><rect class="cls-23" y="27.66" width="207.98" height="0.3"/><rect class="cls-23" y="27.46" width="207.98" height="0.3"/><rect class="cls-23" y="27.27" width="207.98" height="0.3"/><rect class="cls-23" y="27.07" width="207.98" height="0.3"/><rect class="cls-23" y="26.87" width="207.98" height="0.3"/><rect class="cls-23" y="26.67" width="207.98" height="0.3"/><rect class="cls-24" y="26.48" width="207.98" height="0.3"/><rect class="cls-24" y="26.28" width="207.98" height="0.3"/><rect class="cls-24" y="26.08" width="207.98" height="0.3"/><rect class="cls-24" y="25.88" width="207.98" height="0.3"/><rect class="cls-24" y="25.69" width="207.98" height="0.3"/><rect class="cls-25" y="25.49" width="207.98" height="0.3"/><rect class="cls-25" y="25.29" width="207.98" height="0.3"/><rect class="cls-25" y="25.1" width="207.98" height="0.3"/><rect class="cls-25" y="24.9" width="207.98" height="0.3"/><rect class="cls-25" y="24.7" width="207.98" height="0.3"/><rect class="cls-25" y="24.5" width="207.98" height="0.3"/><rect class="cls-25" y="24.31" width="207.98" height="0.3"/><rect class="cls-25" y="24.11" width="207.98" height="0.3"/><rect class="cls-25" y="23.91" width="207.98" height="0.3"/><rect class="cls-25" y="23.71" width="207.98" height="0.3"/><rect class="cls-25" y="23.52" width="207.98" height="0.3"/><rect class="cls-25" y="23.32" width="207.98" height="0.3"/><rect class="cls-26" y="23.12" width="207.98" height="0.3"/><rect class="cls-26" y="22.93" width="207.98" height="0.3"/><rect class="cls-26" y="22.73" width="207.98" height="0.3"/><rect class="cls-27" y="22.53" width="207.98" height="0.3"/><rect class="cls-27" y="22.33" width="207.98" height="0.3"/><rect class="cls-27" y="22.14" width="207.98" height="0.3"/><rect class="cls-27" y="21.94" width="207.98" height="0.3"/><rect class="cls-27" y="21.74" width="207.98" height="0.3"/><rect class="cls-27" y="21.54" width="207.98" height="0.3"/><rect class="cls-27" y="21.35" width="207.98" height="0.3"/><rect class="cls-27" y="21.15" width="207.98" height="0.3"/><rect class="cls-27" y="20.95" width="207.98" height="0.3"/><rect class="cls-27" y="20.76" width="207.98" height="0.3"/><rect class="cls-27" y="20.56" width="207.98" height="0.3"/><rect class="cls-27" y="20.36" width="207.98" height="0.3"/><rect class="cls-27" y="20.16" width="207.98" height="0.3"/><rect class="cls-27" y="19.97" width="207.98" height="0.3"/><rect class="cls-28" y="19.77" width="207.98" height="0.3"/><rect class="cls-28" y="19.57" width="207.98" height="0.3"/><rect class="cls-28" y="19.37" width="207.98" height="0.3"/><rect class="cls-28" y="19.18" width="207.98" height="0.3"/><rect class="cls-28" y="18.98" width="207.98" height="0.3"/><rect class="cls-28" x="103.84" y="-85.06" width="0.3" height="207.98" transform="matrix(0, -1, 1, 0, 84.96, 122.9)"/><rect class="cls-28" y="18.59" width="207.98" height="0.3"/><rect class="cls-28" y="18.39" width="207.98" height="0.3"/><rect class="cls-28" width="207.98" height="18.48"/></g></g></g></svg>